<svg xmlns="http://www.w3.org/2000/svg" width="24" height="24" viewBox="0 0 24 24" fill="none">
  <!-- Bordered box frame -->
  <rect x="1.5" y="1.5" width="21" height="21" rx="2" stroke="currentColor" stroke-width="1.5"
    fill="none" />

  <!-- Ignition checkmark-->
  <g transform="translate(5, 5) scale(0.15)">
    <g transform="matrix(0.13333333,0,0,-0.13333333,0,96)">
      <!-- Circle at the checkmark bend -->
      <path
        d="M 323.215,68.4297 C 323.215,30.6367 292.582,0 254.789,0 c -37.785,0 -68.422,30.6367 -68.422,68.4297 0,37.7933 30.637,68.4253 68.422,68.4253 37.793,0 68.426,-30.632 68.426,-68.4253"
        fill="currentColor" />
      <!-- Main checkmark swoosh -->
      <path
        d="m 648.215,679.289 c -6.125,13.598 -15.793,24.129 -28.996,31.633 -13.281,7.461 -27.266,10.351 -42.012,8.566 -14.812,-1.718 -27.539,-11.972 -38.152,-30.812 -2.004,-3.457 -7.082,-14.102 -15.317,-31.977 -8.289,-17.832 -18.797,-40.406 -31.511,-67.715 C 479.551,561.723 465.129,531 449.07,496.891 c -16.132,-34.11 -32.754,-70 -49.898,-107.61 -17.231,-37.633 -34.559,-75.59 -52.109,-113.949 -17.208,-37.605 -33.606,-73.281 -49.075,-106.992 7.41,-3.184 14.422,-7.285 21.098,-12.227 31.82,46.653 65.863,96.297 102.059,148.977 36.609,53.308 70.613,103.215 102.058,149.816 31.465,46.543 58.215,86.145 80.305,118.653 22.117,32.527 34.734,51.593 37.871,57.16 10.68,18.832 12.969,34.976 6.836,48.57"
        fill="currentColor" />
      <!-- Checkmark tail -->
      <path
        d="m 209.711,167.402 c -10.039,40.098 -18.262,72.371 -24.559,96.844 -6.429,24.731 -11.793,44.301 -15.964,58.723 -4.149,14.375 -7.45,24.953 -9.879,31.656 -2.454,6.727 -4.801,12.477 -7.075,17.188 -5.394,11.312 -13.371,18.699 -23.855,22.167 -10.524,3.454 -21.734,2.305 -33.6681,-3.394 -11.9453,-5.703 -19.8906,-13.754 -23.7851,-24.082 -3.9531,-10.371 -3.1836,-21.191 2.1601,-32.512 2.2735,-4.707 5.2539,-10.137 8.9649,-16.265 3.6914,-6.118 9.8203,-15.364 18.4372,-27.661 8.555,-12.285 20.465,-28.679 35.641,-49.187 15.148,-20.508 35.359,-47.402 60.594,-80.828 4.222,2.742 8.558,5.262 12.988,7.351"
        fill="currentColor" />
    </g>
  </g>
</svg>